<svg width="50" height="50" viewBox="0 0 50 50" fill="none" xmlns="http://www.w3.org/2000/svg">
<rect width="50" height="50" rx="25" fill="#E11D2E"/>
<g opacity="0.7">
<path d="M35.334 13.3335H28.6673C27.9309 13.3335 27.334 13.9304 27.334 14.6668V21.3335C27.334 22.0699 27.9309 22.6668 28.6673 22.6668H35.334C36.0703 22.6668 36.6673 22.0699 36.6673 21.3335V14.6668C36.6673 13.9304 36.0703 13.3335 35.334 13.3335Z" fill="white"/>
<path d="M21 27.667H14.3333C13.597 27.667 13 28.2639 13 29.0003V35.667C13 36.4034 13.597 37.0003 14.3333 37.0003H21C21.7364 37.0003 22.3333 36.4034 22.3333 35.667V29.0003C22.3333 28.2639 21.7364 27.667 21 27.667Z" fill="white"/>
<path d="M17.6667 22.6668C18.2795 22.6668 18.8863 22.5461 19.4525 22.3116C20.0187 22.0771 20.5331 21.7333 20.9665 21.3C21.3998 20.8666 21.7436 20.3522 21.9781 19.786C22.2126 19.2198 22.3333 18.613 22.3333 18.0002C22.3333 17.3873 22.2126 16.7805 21.9781 16.2143C21.7436 15.6481 21.3998 15.1337 20.9665 14.7003C20.5331 14.267 20.0187 13.9232 19.4525 13.6887C18.8863 13.4542 18.2795 13.3335 17.6667 13.3335C16.429 13.3335 15.242 13.8252 14.3668 14.7003C13.4917 15.5755 13 16.7625 13 18.0002C13 19.2378 13.4917 20.4248 14.3668 21.3C15.242 22.1751 16.429 22.6668 17.6667 22.6668Z" fill="white"/>
<path d="M36.6673 35.667L32.0006 27.667L27.334 35.667C27.334 36.4034 27.9309 37.0003 28.6673 37.0003H35.334C36.0703 37.0003 36.6673 36.4034 36.6673 35.667Z" fill="white"/>
</g>
</svg>
