<svg width="50" height="50" viewBox="0 0 50 50" fill="none" xmlns="http://www.w3.org/2000/svg">
<rect width="50" height="50" rx="25" fill="#FF9429"/>
<path fill-rule="evenodd" clip-rule="evenodd" d="M29.5 13C31.459 13 33.127 14.2525 33.745 16H20.5C18.5109 16 16.6032 16.7902 15.1967 18.1967C13.7902 19.6032 13 21.5109 13 23.5V30.745C12.1224 30.4345 11.3626 29.8595 10.8254 29.0993C10.2881 28.339 9.99973 27.4309 10 26.5V17.5C10 16.3065 10.4741 15.1619 11.318 14.318C12.1619 13.4741 13.3065 13 14.5 13H29.5ZM35.5 19H20.5C19.3065 19 18.1619 19.4741 17.318 20.318C16.4741 21.1619 16 22.3065 16 23.5V32.5C16 33.6935 16.4741 34.8381 17.318 35.682C18.1619 36.5259 19.3065 37 20.5 37H35.5C36.6935 37 37.8381 36.5259 38.682 35.682C39.5259 34.8381 40 33.6935 40 32.5V23.5C40 22.3065 39.5259 21.1619 38.682 20.318C37.8381 19.4741 36.6935 19 35.5 19ZM31 28C31 28.7956 30.6839 29.5587 30.1213 30.1213C29.5587 30.6839 28.7956 31 28 31C27.2044 31 26.4413 30.6839 25.8787 30.1213C25.3161 29.5587 25 28.7956 25 28C25 27.2044 25.3161 26.4413 25.8787 25.8787C26.4413 25.3161 27.2044 25 28 25C28.7956 25 29.5587 25.3161 30.1213 25.8787C30.6839 26.4413 31 27.2044 31 28Z" fill="white"/>
</svg>
