<svg width="40" height="40" viewBox="0 0 40 40" fill="none" xmlns="http://www.w3.org/2000/svg">
<rect width="40" height="40" fill="#E5E5E5"/>
<g clip-path="url(#clip0_0_1)">
<rect width="1920" height="10131" transform="translate(-1413 -8563)" fill="white"/>
<rect width="1920" height="688" transform="matrix(1 0 0 -1 -1413 493)" fill="#101932"/>
<rect x="-971" y="-17" width="1036" height="75" rx="15" fill="#384D70"/>
<rect opacity="0.8" width="40" height="40" rx="20" fill="#E11D2E"/>
<path d="M19.1161 25.8839C19.6043 26.372 20.3957 26.372 20.8839 25.8839L28.8388 17.9289C29.327 17.4408 29.327 16.6493 28.8388 16.1612C28.3507 15.673 27.5592 15.673 27.0711 16.1612L20 23.2322L12.9289 16.1612C12.4408 15.673 11.6493 15.673 11.1612 16.1612C10.673 16.6493 10.673 17.4408 11.1612 17.9289L19.1161 25.8839ZM18.75 24L18.75 25L21.25 25L21.25 24L18.75 24Z" fill="white"/>
</g>
<defs>
<clipPath id="clip0_0_1">
<rect width="1920" height="10131" fill="white" transform="translate(-1413 -8563)"/>
</clipPath>
</defs>
</svg>
